<svg id="Layer_1" data-name="Layer 1" xmlns="http://www.w3.org/2000/svg" viewBox="0 0 369.59 369.59"><defs><style>.cls-1{fill:#1d1b1c;}.cls-2{fill:#fff;}</style></defs><path class="cls-1" d="M341.49,72a78,78,0,0,0-15.81-15.82C294.59,33,250.85,18.78,196.61,18.78S98.61,33,67.54,56.19A78,78,0,0,0,51.72,72c-23.23,31.1-37.41,74.83-37.41,129.1s14.18,98,37.41,129a78.53,78.53,0,0,0,15.82,15.82c31.08,23.22,74.83,37.4,129.07,37.4s98-14.18,129.07-37.4a78.48,78.48,0,0,0,15.81-15.82c23.23-31,37.41-74.79,37.41-129S364.72,103.11,341.49,72Z" transform="translate(-11.81 -16.28)"/><path class="cls-2" d="M267.44,160.45h0c-3.62-6.23-11-9.8-18.6-9.8-9.41,0-18.76,5.19-23.17,11.32-1.65-6.39-8.06-11.32-15.3-11.32-8.41,0-19.72,6.77-22,16.76l-6.5-13.3H161.36L196,228.77l-4.71,11.65H181.8l-42-86.33H119.36l49,105.44H193l8.1-19.89,9.23,19.9H235l33.32-81.87A19.87,19.87,0,0,0,267.44,160.45Zm-61.22,42.93-12.33-27.51c.72-1.69,5-10.69,13.62-10.69a10.1,10.1,0,0,1,8.77,4.55h0a9.11,9.11,0,0,1,.41,8Zm50.38-21.07-23.33,58.11h-10.1L212,213.7l13.79-33.59s5.62-15,18.46-15c4.83,0,9.5,2.26,11.8,6.21h0A12.66,12.66,0,0,1,256.6,182.31Z" transform="translate(-11.81 -16.28)"/><path class="cls-2" d="M40.28,140.11l2.41-7.75L72,130.11l-1.55,5-7.44.55L58.87,149l5.82,4.67-1.53,4.92Zm14.9,5.94,3.11-10-12.12.88-.46,1.49Z" transform="translate(-11.81 -16.28)"/><path class="cls-2" d="M64.21,122l-14.57-8.38,2.49-4.33,14.37,8.26c4.39,2.53,7.64.26,9.76-3.43s2.48-7.61-1.81-10.08L59.94,95.72l2.49-4.33,14.44,8.3c7.13,4.1,7,10.46,3.34,16.81S71.21,126,64.21,122Z" transform="translate(-11.81 -16.28)"/><path class="cls-2" d="M79.16,79.6l-7.78,6.92L68.47,83l19-16.89,3.2,3.3-7.78,6.92L98,93.28,94.24,96.6Z" transform="translate(-11.81 -16.28)"/><path class="cls-2" d="M95.73,61.26l4.48-2.2L105,68.84,119,62l-4.78-9.78L118.7,50l12,24.52-4.49,2.2L121,66.11,107,73l5.2,10.62-4.49,2.19Z" transform="translate(-11.81 -16.28)"/><path class="cls-2" d="M131.78,45.63l21.76-5.43,1.24,4.36-17.1,4.26,1.54,6.2,13.93-3.47,1.08,4.36-13.92,3.47,1.78,7.15,17.71-4.42.91,4.43-22.33,5.57Z" transform="translate(-11.81 -16.28)"/><path class="cls-2" d="M165.26,38.32l5.68-.42,16.37,18.61h.23l-1.47-19.72,4.86-.36,2,27.22-5.37.4L170.88,44.94h-.27l1.5,20.23-4.82.36Z" transform="translate(-11.81 -16.28)"/><path class="cls-2" d="M209.87,41.62,199.48,41l.49-4.58L225.35,38l-.1,4.6-10.4-.67L213.4,64.6l-5-.32Z" transform="translate(-11.81 -16.28)"/><path class="cls-2" d="M233.6,39.48l4.93.84-4.6,26.92L229,66.4Z" transform="translate(-11.81 -16.28)"/><path class="cls-2" d="M244,55c2.24-7.35,9.28-12.18,18.8-9.29a16.77,16.77,0,0,1,8.75,6.07l-1.48,4.89h0c-2.18-2.74-4.51-5.4-8.65-6.66-6.05-1.83-10.82,1.12-12.44,6.46s.53,10.23,6.72,12.11a16.39,16.39,0,0,0,10.94-.6h0l-1.48,4.89a18.24,18.24,0,0,1-11.11-.07C244.31,69.88,241.79,62.35,244,55Z" transform="translate(-11.81 -16.28)"/><path class="cls-2" d="M290,57.62l7.08,4-3.88,29.1-4.56-2.56,1-7.39-12.15-6.79-5.77,4.73-4.49-2.51ZM281.12,71l9.15,5.11,1.64-12-1.37-.76Z" transform="translate(-11.81 -16.28)"/><path class="cls-2" d="M315.25,80.73,308,73.26l3.44-3.06,17.71,18.24L326,91.79l-7.25-7.48-16.31,15.8L299,96.54Z" transform="translate(-11.81 -16.28)"/><path class="cls-2" d="M334.58,97.48l10.54,19.79-3.92,2.27L332.92,104l-5.65,3L334,119.65l-4,2.11-6.69-12.65-6.5,3.46,8.57,16.11-4.08,2-10.81-20.37Z" transform="translate(-11.81 -16.28)"/><path class="cls-2" d="M349.86,129.24l3.5,12.5c2.33,8.34-1.18,14.59-9.41,16.89s-14.54-1.19-16.88-9.53l-3.5-12.5Zm-18.44,18.6c1.49,5.34,5.19,7.54,11.08,5.89s8-5.47,6.49-10.81l-2.14-7.66-17.58,4.92Z" transform="translate(-11.81 -16.28)"/><path class="cls-2" d="M45.57,189.94c7.68-.05,14.39,5.25,14.45,15.2A16.9,16.9,0,0,1,56.8,215.3H51.7c2-2.9,3.82-5.91,3.79-10.24,0-6.32-4.27-10-9.85-10s-9.61,3.54-9.57,10a16.35,16.35,0,0,0,3.81,10.27H34.77a18.29,18.29,0,0,1-3.23-10.62C31.48,194.63,37.92,190,45.57,189.94Z" transform="translate(-11.81 -16.28)"/><path class="cls-2" d="M46,221c8.56-1.25,15,3.68,16.33,12.74s-3.39,15.6-12,16.86-15-3.63-16.33-12.7S37.42,222.22,46,221Zm3.6,24.55c6-.88,9.16-5,8.26-11.11s-5.14-9.22-11.12-8.34-9.16,5-8.26,11.1,5.16,9.22,11.15,8.35Z" transform="translate(-11.81 -16.28)"/><path class="cls-2" d="M65.4,253.57l1.53,4.75-21.62,6.93,4.94,15.41-4.43,1.26-6.42-20Z" transform="translate(-11.81 -16.28)"/><path class="cls-2" d="M73.64,277.56,76,282,56,292.62l7.6,14.29-4.14,2-9.86-18.56Z" transform="translate(-11.81 -16.28)"/><path class="cls-2" d="M84,298l15.74,16-3.12,3.29L84.25,304.7l-4.56,4.49,10.08,10.22-3.2,3.15L76.5,312.31l-5.25,5.18,12.81,13-3.36,3L64.55,317.11Z" transform="translate(-11.81 -16.28)"/><path class="cls-2" d="M95.83,326.93c3.51-6.84,11.3-10.33,20.15-5.79a16.85,16.85,0,0,1,7.53,7.54l-2.33,4.54h0c-1.67-3.08-3.48-6.12-7.33-8.09-5.63-2.88-10.84-.83-13.39,4.13s-1.3,10.16,4.46,13.11a16.32,16.32,0,0,0,10.86,1.37h0l-2.33,4.55a18.33,18.33,0,0,1-10.92-2.05C93.49,341.59,92.35,333.73,95.83,326.93Z" transform="translate(-11.81 -16.28)"/><path class="cls-2" d="M135.79,334.45l-10-2.9,1.47-4.37,24.41,7.1-1.09,4.47-10-2.9-6.33,21.79-4.79-1.39Z" transform="translate(-11.81 -16.28)"/><path class="cls-2" d="M151.74,348.28c1.06-8.59,7.53-13.49,16.62-12.36s14.13,7.42,13.06,16-7.49,13.49-16.59,12.36S150.67,356.91,151.74,348.28Zm24.61,3.05c.74-6-2.35-10.15-8.51-10.91s-10.25,2.49-11,8.49,2.35,10.16,8.5,10.92S175.6,357.33,176.35,351.33Z" transform="translate(-11.81 -16.28)"/><path class="cls-2" d="M188.61,338.4l14.23-.19c6.83-.1,10.23,3.13,10.31,9,.06,4.49-2,7.56-6.12,8.75l7.38,9.38-5.89.08-6.44-8.5-8.22.12.11,8.58-5,.06Zm14.27,14.12c3.86,0,5.24-2.21,5.2-5s-1.47-4.86-5.33-4.81l-9.09.13.14,9.79Z" transform="translate(-11.81 -16.28)"/><path class="cls-2" d="M275.24,338.33a14.57,14.57,0,0,1,.3,8.12l3.55,1.14,1.55,5h0l-6.77-2.17a15.66,15.66,0,0,1-8.56,6.08c-8.74,2.74-16-.88-18.57-9.18s1.26-15.39,10-18.14S272.64,330,275.24,338.33Zm-23.63,7.41c1.8,5.73,6.42,8.33,12.37,6.46a10.55,10.55,0,0,0,5.29-3.33l-9.12-2.62,1.47-4.18L271,345a11.26,11.26,0,0,0-.52-5.15c-1.79-5.74-6.46-8.24-12.34-6.39S249.81,340,251.61,345.74Z" transform="translate(-11.81 -16.28)"/><path class="cls-2" d="M283,338.26l-8.47-14.52,4.31-2.51,8.35,14.32c2.55,4.38,6.5,4,10.17,1.88s5.95-5.36,3.45-9.64l-8.42-14.46,4.31-2.51,8.39,14.39c4.14,7.11.85,12.54-5.48,16.23S287.07,345.24,283,338.26Z" transform="translate(-11.81 -16.28)"/><path class="cls-2" d="M303.15,304.17l5-6.37,28.14,8.37-3.23,4.11-7.14-2.17-8.6,11,3.77,6.44-3.18,4ZM315,315l6.48-8.24-11.64-3.49-1,1.22Z" transform="translate(-11.81 -16.28)"/><path class="cls-2" d="M315.2,286.49l2.05-4.56,20.7,9.32,6.64-14.76,4.13,2-8.63,19.17Z" transform="translate(-11.81 -16.28)"/><path class="cls-2" d="M325.2,261.78l1.42-4.78,26.16,7.81-1.42,4.78Z" transform="translate(-11.81 -16.28)"/><path class="cls-2" d="M334.93,241.47l-1.75,10.27-4.5-1,4.26-25.07,4.57.58-1.75,10.27,22.38,3.8-.83,4.92Z" transform="translate(-11.81 -16.28)"/><path class="cls-2" d="M351.57,209.84,333.39,221.7l.14-5.84,13.26-8.47V207L334,197.77l.13-5.66,17.53,12.74,9.48.22-.12,5Z" transform="translate(-11.81 -16.28)"/><path class="cls-2" d="M196.61,385.87c-52.24,0-97.39-13.1-130.57-37.9a80.39,80.39,0,0,1-16.32-16.32c-24.8-33.19-37.91-78.34-37.91-130.54S24.92,103.73,49.72,70.54A80.59,80.59,0,0,1,66,54.19c33.18-24.8,78.33-37.91,130.57-37.91S294,29.39,327.17,54.19A80.69,80.69,0,0,1,343.5,70.51h0c24.79,33.19,37.9,78.34,37.9,130.57s-13.11,97.38-37.9,130.57A80.69,80.69,0,0,1,327.17,348C294,372.77,248.84,385.87,196.61,385.87Zm0-364.59C145.46,21.28,101.35,34.05,69,58.2A75.51,75.51,0,0,0,53.72,73.5c-24.14,32.32-36.91,76.43-36.91,127.61s12.77,95.26,36.91,127.57A75.26,75.26,0,0,0,69,344c32.31,24.15,76.43,36.91,127.58,36.91s95.29-12.76,127.6-36.91a75.05,75.05,0,0,0,15.31-15.31c24.15-32.31,36.91-76.42,36.91-127.54s-12.76-95.26-36.91-127.58h0a75.51,75.51,0,0,0-15.31-15.3c-32.31-24.18-76.43-36.95-127.57-36.95Z" transform="translate(-11.81 -16.28)"/><path class="cls-2" d="M196.61,326c-35.25,0-65.73-8.86-88.15-25.61a54.76,54.76,0,0,1-11.12-11.12c-16.76-22.42-25.61-52.91-25.61-88.15s8.85-65.73,25.61-88.15a54.76,54.76,0,0,1,11.12-11.12c22.42-16.76,52.9-25.61,88.15-25.61s65.72,8.85,88.14,25.61a55.32,55.32,0,0,1,11.13,11.12c16.75,22.42,25.61,52.9,25.61,88.15s-8.86,65.72-25.61,88.15a55.07,55.07,0,0,1-11.13,11.12C262.33,317.11,231.85,326,196.61,326Zm0-244.76c-34.16,0-63.61,8.51-85.16,24.61a50,50,0,0,0-10.11,10.12c-16.1,21.55-24.61,51-24.61,85.15s8.51,63.6,24.61,85.15a49.93,49.93,0,0,0,10.11,10.11C133,312.45,162.45,321,196.61,321s63.6-8.51,85.15-24.62a49.43,49.43,0,0,0,10.11-10.11c16.11-21.55,24.62-51,24.62-85.15s-8.51-63.6-24.62-85.15a50,50,0,0,0-10.11-10.12c-21.55-16.1-51-24.61-85.15-24.61Z" transform="translate(-11.81 -16.28)"/></svg>